<svg width="64" height="64" viewBox="0 0 64 64" fill="none" xmlns="http://www.w3.org/2000/svg">
<path d="M0 4.09248C0 1.83227 1.83227 0 4.09248 0V0C6.35269 0 8.18496 1.83226 8.18496 4.09248V5.39563C8.18496 7.65585 6.35269 9.48811 4.09248 9.48811V9.48811C1.83227 9.48811 0 7.65585 0 5.39563V4.09248ZM0.184971 22.4362C0.184971 20.2781 1.93442 18.5287 4.09248 18.5287V18.5287C6.25054 18.5287 7.99999 20.2781 7.99999 22.4362V59.3316C7.99999 61.4897 6.25054 63.2392 4.09248 63.2392V63.2392C1.93442 63.2392 0.184971 61.4897 0.184971 59.3317V22.4362Z" fill="black"/>
<path d="M45.0405 17.7678C49.0174 17.7678 52.4239 18.5138 55.2601 20.0056C58.1272 21.4676 60.3006 23.5711 61.7803 26.3161C63.2601 29.0611 64 32.2834 64 35.9832V59.8751C64 61.733 62.4938 63.2392 60.6359 63.2392H59.2126C58.2382 63.2392 57.4314 62.4822 57.3694 61.5099V61.5099C57.2521 59.6734 54.3994 58.8675 52.9596 60.0134C52.1363 60.6686 51.2385 61.2516 50.2659 61.7622C47.368 63.2541 44.2698 64 40.9711 64C37.8266 64 35.0212 63.448 32.555 62.3441C30.1195 61.2103 28.2082 59.5991 26.8209 57.5105C25.4336 55.3921 24.74 52.8858 24.74 49.9916C24.74 45.5459 26.4047 42.3086 29.7342 40.2797C33.0945 38.221 37.7804 37.1916 43.7919 37.1916H56.8786C56.8478 34.2079 56.4624 31.7911 55.7226 29.9413C54.9827 28.0615 53.7495 26.6741 52.0231 25.779C50.3276 24.8541 48.0309 24.3916 45.133 24.3916C41.0623 24.3916 37.635 25.7793 34.8511 28.5545C33.4359 29.9654 31.2092 30.4316 29.5719 29.2858V29.2858C27.9173 28.1279 27.5349 25.805 28.9464 24.3606C30.6574 22.6099 32.5076 21.2029 34.4972 20.1399C37.4567 18.5585 40.9711 17.7678 45.0405 17.7678ZM42.4971 57.5105C46.2582 57.5105 49.3873 56.4214 51.8844 54.2434C53.7122 52.647 55.0887 50.7075 56.0139 48.4248C56.7402 46.6331 56.8786 44.6746 56.8786 42.7413V42.7413H44.2544C40.4625 42.7413 37.5954 43.4126 35.6532 44.7552C33.7419 46.0979 32.7862 47.9329 32.7862 50.2601C32.7862 52.4681 33.634 54.2284 35.3295 55.5413C37.0251 56.8541 39.4143 57.5105 42.4971 57.5105Z" fill="black"/>
</svg>
