<svg width="64" height="64" viewBox="0 0 64 64" fill="none" xmlns="http://www.w3.org/2000/svg">
<rect x="3" y="3" width="58" height="58" fill="#262626"/>
<path d="M7 7H13.9758V14.4126H7V7ZM7.15765 21.4755H13.8182V56.4056H7.15765V21.4755Z" fill="white"/>
<path d="M40.8413 20.8811C44.2307 20.8811 47.134 21.4639 49.5512 22.6294C51.9948 23.7716 53.8471 25.4149 55.1083 27.5594C56.3694 29.704 57 32.2214 57 35.1119V56.4056H51.443L51.0095 50.1818C49.6695 52.373 47.7646 54.0629 45.2948 55.2517C42.825 56.4172 40.1845 57 37.3731 57C34.6932 57 32.3022 56.5688 30.2003 55.7063C28.1246 54.8205 26.4956 53.5618 25.3132 51.9301C24.1309 50.2751 23.5397 48.317 23.5397 46.0559C23.5397 42.5827 24.9585 40.0536 27.7962 38.4685C30.6601 36.8601 34.6538 36.0559 39.7772 36.0559H50.9306C50.9044 33.7249 50.5759 31.8368 49.9454 30.3916C49.3148 28.9231 48.2638 27.8392 46.7925 27.1399C45.3474 26.4172 43.3899 26.0559 40.9202 26.0559C36.4273 26.0559 32.854 27.8741 30.2003 31.5105L25.0768 28.2238C27.0736 25.7995 29.3332 23.9697 31.8555 22.7343C34.3779 21.4988 37.3731 20.8811 40.8413 20.8811ZM38.6737 51.9301C41.8792 51.9301 44.546 51.0793 46.6742 49.3776C48.8287 47.6527 50.2475 45.4149 50.9306 42.6643V40.3916H40.1713C36.9396 40.3916 34.4961 40.9161 32.8408 41.965C31.2118 43.014 30.3973 44.4476 30.3973 46.2657C30.3973 47.9907 31.1199 49.366 32.5649 50.3916C34.01 51.4172 36.0463 51.9301 38.6737 51.9301Z" fill="white"/>
</svg>
